<?xml version="1.0" encoding="UTF-8"?>
<svg id="Livello_2" data-name="Livello 2" xmlns="http://www.w3.org/2000/svg" viewBox="0 0 540 540">
  <defs>
    <style>
      .cls-1 {
        fill: #fff;
      }
    </style>
  </defs>
  <g id="Layer_1" data-name="Layer 1">
    <g>
      <circle class="cls-1" cx="270" cy="270" r="270"/>
      <path d="m322.8,270l93.6-93.6c14.58-14.58,14.58-38.22,0-52.8-14.58-14.58-38.22-14.58-52.8,0l-93.6,93.6-93.6-93.6c-14.58-14.58-38.22-14.58-52.8,0-14.58,14.58-14.58,38.22,0,52.8l93.6,93.6-93.6,93.6c-14.58,14.58-14.58,38.22,0,52.8,7.29,7.29,16.84,10.93,26.4,10.93s19.11-3.64,26.4-10.93l93.6-93.6,93.6,93.6c7.29,7.29,16.84,10.93,26.4,10.93s19.11-3.64,26.4-10.93c14.58-14.58,14.58-38.22,0-52.8l-93.6-93.6Z"/>
    </g>
  </g>
</svg>