<?xml version="1.0" encoding="UTF-8"?>
<svg id="Livello_2" data-name="Livello 2" xmlns="http://www.w3.org/2000/svg" viewBox="0 0 348.91 498.75">
  <defs>
    <style>
      .cls-1 {
        fill: black;
      }
    </style>
  </defs>
  <g id="Livello_1-2" data-name="Livello 1">
    <g>
      <path class="cls-1" d="m98.44,49.22c0,27.18-22.04,49.22-49.22,49.22S0,76.4,0,49.22,22.04,0,49.22,0s49.22,22.03,49.22,49.22"/>
      <path class="cls-1" d="m348.91,49.22c0,27.18-22.04,49.22-49.22,49.22s-49.22-22.04-49.22-49.22S272.5,0,299.69,0s49.22,22.03,49.22,49.22"/>
      <path class="cls-1" d="m98.44,249.38c0,27.18-22.04,49.22-49.22,49.22S0,276.56,0,249.38s22.04-49.22,49.22-49.22,49.22,22.04,49.22,49.22"/>
      <path class="cls-1" d="m348.91,249.38c0,27.18-22.04,49.22-49.22,49.22s-49.22-22.04-49.22-49.22,22.04-49.22,49.22-49.22,49.22,22.04,49.22,49.22"/>
      <path class="cls-1" d="m98.44,449.54c0,27.18-22.04,49.22-49.22,49.22S0,476.72,0,449.54s22.04-49.22,49.22-49.22,49.22,22.04,49.22,49.22"/>
      <path class="cls-1" d="m348.91,449.54c0,27.18-22.04,49.22-49.22,49.22s-49.22-22.04-49.22-49.22,22.04-49.22,49.22-49.22,49.22,22.04,49.22,49.22"/>
    </g>
  </g>
</svg>